<svg xmlns="http://www.w3.org/2000/svg" xmlns:xlink="http://www.w3.org/1999/xlink" width="141" height="30" viewBox="0 0 141 30">
    <defs>
        <linearGradient id="linear-gradient" x1="-6.75" x2="-5.884" y1="-7.371" y2="-7.371" gradientUnits="objectBoundingBox">
            <stop offset="0" stop-color="#f74800"/>
            <stop offset="1" stop-color="#ffc800"/>
        </linearGradient>
        <linearGradient id="linear-gradient-2" x1="0" x2="1" y1=".5" y2=".5" xlink:href="#linear-gradient"/>
        <linearGradient id="linear-gradient-4" x1="-6.567" x2="-5.701" y1="-7.16" y2="-7.16" xlink:href="#linear-gradient"/>
        <linearGradient id="linear-gradient-6" x1="-7.067" x2="-6.201" y1="-7.737" y2="-7.737" xlink:href="#linear-gradient"/>
        <linearGradient id="linear-gradient-7" x1="-23.72" x2="-22.854" y1="-26.967" y2="-26.967" xlink:href="#linear-gradient"/>
        <linearGradient id="linear-gradient-11" x1=".5" x2=".5" y1="1" y2="0" xlink:href="#linear-gradient"/>
        <style>
            .cls-2{fill:#282828}.cls-4{fill:url(#linear-gradient-2)}.cls-8{fill:url(#linear-gradient-11)}
        </style>
    </defs>
    <g id="logotransparent" transform="translate(-177.145 -171.801)">
        <path id="Rectangle_1471" fill="none" d="M0 0H141V30H0z" transform="translate(177.145 171.801)"/>
        <g id="Group_1716" transform="translate(216.601 179.081)">
            <path id="Path_2009" d="M152.717 268.178a11.337 11.337 0 0 1-3.632-.642c-.1-.06-.241-.14-.181-.281l.221-1.064c.04-.14.121-.22.221-.22a.4.4 0 0 1 .14.02 10.964 10.964 0 0 0 3.09.522c1.345 0 2.227-.422 2.227-1.485 0-1.365-.963-1.284-2.328-1.565-1.424-.221-3.47-.6-3.47-3.13 0-2.749 2.447-3.211 4.213-3.211a12.21 12.21 0 0 1 3.25.442.255.255 0 0 1 .221.3l-.181 1.083c-.02.141-.121.2-.281.181a16.294 16.294 0 0 0-2.728-.341c-1.124 0-2.227.281-2.227 1.385 0 1.144 1.1 1.3 2.328 1.464 1.665.261 3.47.542 3.47 3.19 0 2.61-2.006 3.352-4.353 3.352z" class="cls-2" transform="translate(-148.89 -252.818)"/>
            <path id="Path_2010" d="M179.792 267.617a.266.266 0 0 1-.3.3h-1.645c-.221 0-.321-.1-.321-.3v-7.2c0-1.264-.482-1.645-1.686-1.645a14.059 14.059 0 0 0-2.969.421v8.427a.266.266 0 0 1-.3.3H170.9a.266.266 0 0 1-.3-.3v-7.2c0-1.264-.462-1.645-1.665-1.645a14.851 14.851 0 0 0-3.009.421v8.427a.266.266 0 0 1-.3.3h-1.665c-.221 0-.322-.1-.322-.3v-8.533c0-.743.281-1.083 1.345-1.4a16.467 16.467 0 0 1 4.133-.562 4.171 4.171 0 0 1 2.708.722 14.206 14.206 0 0 1 4.254-.722c2.447 0 3.711.682 3.711 2.99z" class="cls-2" transform="translate(-152.529 -252.818)"/>
            <path id="Path_2011" d="M198.224 265.811c0 1.464-.4 1.765-1.786 2.086a11.792 11.792 0 0 1-2.708.28c-2.007 0-4.755-.14-4.755-3.37 0-2.628 1.565-2.829 3.331-3.15l3.651-.6v-.743c0-.622-.04-1.043-.622-1.284a4.55 4.55 0 0 0-1.645-.2 14.59 14.59 0 0 0-3.511.562.464.464 0 0 1-.14.02.26.26 0 0 1-.241-.181l-.241-1.1c-.06-.222.081-.282.221-.342a15.427 15.427 0 0 1 4.313-.662 6.257 6.257 0 0 1 2.99.542c1.043.582 1.143 1.525 1.143 2.588zm-5.317-2.669c-.823.16-1.605.241-1.605 1.625 0 1.705 1.424 1.846 2.488 1.846a6.485 6.485 0 0 0 2.166-.321v-3.652z" class="cls-2" transform="translate(-158.78 -252.818)"/>
            <path id="Path_2012" d="M205.144 259.076c0-.823.362-1.063 1.224-1.364a13.417 13.417 0 0 1 3.952-.562c.241 0 .462.04.462.341v1.144c0 .16-.04.3-.281.3a11.687 11.687 0 0 0-3.07.321v8.367a.266.266 0 0 1-.3.3h-1.685a.266.266 0 0 1-.3-.3z" class="cls-2" transform="translate(-162.769 -252.825)"/>
            <path id="Path_2013" d="M222.439 266.254c.06.261-.04.362-.2.421a7.461 7.461 0 0 1-2.488.361c-2.166 0-3.23-.842-3.23-3.009v-10.593c0-.181.1-.3.321-.341l1.625-.341c.241-.06.341.12.341.3v3.25h3.05a.266.266 0 0 1 .3.3v1.1a.266.266 0 0 1-.3.3h-3.05v6.039c0 .963.441 1.3 1.485 1.3a8.142 8.142 0 0 0 1.645-.221c.16-.04.261.02.3.2z" class="cls-2" transform="translate(-165.576 -251.737)"/>
            <path id="Path_2014" d="M240.493 266.768a13.11 13.11 0 0 1-3.552-.461c-1.043-.321-1.1-.863-1.1-1.665V252.1a.335.335 0 0 1 .3-.362l1.645-.321c.241-.06.341.12.341.3v3.331l-.012 1.123a11.251 11.251 0 0 1 2.921-.462c3.23 0 4.313 1.565 4.313 5.438s-.983 5.621-4.856 5.621zm.1-9.39a12.758 12.758 0 0 0-2.468.381v7.1a8.117 8.117 0 0 0 2.227.281c2.007 0 2.669-.842 2.669-3.932 0-3.047-.501-3.829-2.428-3.829z" class="cls-2" transform="translate(-170.342 -251.408)"/>
            <path id="Path_2015" d="M262.005 262.942a3.634 3.634 0 0 1-.02.481.359.359 0 0 1-.341.381h-6.982a2.571 2.571 0 0 0 .743 2.007 3.541 3.541 0 0 0 2.588.722 9.947 9.947 0 0 0 2.869-.482.3.3 0 0 1 .14-.02c.14 0 .2 0 .261.22l.2.9a.361.361 0 0 1 .02.12.314.314 0 0 1-.221.281 10.129 10.129 0 0 1-3.571.621c-3.932 0-5.337-1.665-5.337-5.5 0-3.612.9-5.558 4.856-5.558 2.066 0 3.27.562 3.992 1.606a6.529 6.529 0 0 1 .8 3.731zm-2.307-.722a7.337 7.337 0 0 0-.181-1.906c-.3-1.2-.943-1.565-2.307-1.565-1.464 0-2.107.4-2.367 1.525a8.92 8.92 0 0 0-.181 1.947z" class="cls-2" transform="translate(-174.417 -252.818)"/>
            <path id="Path_2016" d="M278.709 262.942a3.5 3.5 0 0 1-.02.481.359.359 0 0 1-.341.381h-6.982a2.571 2.571 0 0 0 .743 2.007 3.541 3.541 0 0 0 2.588.722 9.947 9.947 0 0 0 2.869-.482.3.3 0 0 1 .14-.02c.14 0 .2 0 .261.22l.2.9a.348.348 0 0 1 .02.12.315.315 0 0 1-.222.281 10.128 10.128 0 0 1-3.571.621c-3.932 0-5.337-1.665-5.337-5.5 0-3.612.9-5.558 4.856-5.558 2.066 0 3.27.562 3.992 1.606a6.529 6.529 0 0 1 .8 3.731zm-2.307-.722a7.333 7.333 0 0 0-.181-1.906c-.3-1.2-.943-1.565-2.307-1.565-1.464 0-2.107.4-2.368 1.525a8.924 8.924 0 0 0-.181 1.947z" class="cls-2" transform="translate(-178.538 -252.818)"/>
        </g>
        <g id="Group_1717" transform="translate(179.015 172.284)">
            <path id="Path_2017" fill="url(#linear-gradient)" d="M183.059 204.469h7.6l3.8 6.578-3.8 6.578h-7.6l-3.8-6.578z" transform="translate(-179.261 -191.31)"/>
            <path id="Path_2018" d="M186.856 211.051l-3.794 6.578-3.8-6.578 3.8-6.578z" class="cls-4" transform="translate(-179.262 -191.312)"/>
            <path id="Path_2019" d="M235.806 179.766h-7.6l-3.794-6.583h7.593z" class="cls-4" transform="translate(-205.422 -173.183)"/>
            <path id="Path_2020" fill="url(#linear-gradient-4)" d="M192.088 188.829h7.6l3.8 6.578-3.8 6.578h-7.6l-3.8-6.578z" transform="translate(-184.492 -182.248)"/>
            <path id="Path_2021" d="M195.889 195.412l-3.8 6.578-3.794-6.578 3.794-6.578z" class="cls-4" transform="translate(-184.496 -182.251)"/>
            <path id="Path_2022" fill="url(#linear-gradient-6)" d="M210.148 188.829h7.6l3.8 6.578-3.8 6.578h-7.6l-3.8-6.578z" transform="translate(-194.956 -182.248)"/>
            <path id="Path_2023" fill="url(#linear-gradient-7)" d="M220.2 230.489h2.56l1.28 2.217-1.28 2.217h-2.56l-1.28-2.217z" transform="translate(-202.239 -206.386)"/>
            <path id="Path_2024" d="M186.856 188.834l-3.794 6.578-3.8 6.578 3.8 6.578 3.794-6.578 3.8-6.578z" class="cls-4" transform="translate(-179.262 -182.251)"/>
            <path id="Path_2025" d="M235.806 179.766h-7.6l-3.794-6.583h7.593z" class="cls-4" transform="translate(-205.422 -173.183)"/>
            <path id="Path_2026" d="M235.806 179.766h-7.6l-3.794-6.583h7.593z" class="cls-4" transform="translate(-205.422 -173.183)"/>
            <path id="Path_2027" d="M235.806 188.834l-3.8 6.578h-7.593v-.005l3.794-6.572z" class="cls-8" transform="translate(-205.422 -182.251)"/>
            <path id="Path_2028" d="M222.974 179.766l-3.794 6.572-3.8-6.572 3.8-6.583z" class="cls-8" transform="translate(-200.189 -173.183)"/>
        </g>
    </g>
</svg>
